<svg xmlns="http://www.w3.org/2000/svg" width="400" height="347.826"><path d="M113.375.34C88.231 5.645 75.723 33.139 80.086 73.511c1.236 11.436 2.853 20.769 5.505 31.761.388 1.609.673 2.957.634 2.996-.039.038-1.279.422-2.756.851-5.156 1.498-13.044 4.108-16.86 5.579-.813.313-2.339.896-3.392 1.296-1.052.4-2.147.833-2.434.961-.287.129-1.657.702-3.044 1.275-6.488 2.677-17.349 8.187-21.009 10.657-.411.277-.788.504-.838.504-.05 0-1.396.873-2.991 1.94C8.85 147.415-.35 167.028 6.809 186.957c.608 1.694 2.68 6.028 3.349 7.007.248.363.451.704.451.758 0 .2 2.71 4.025 3.939 5.559 4.151 5.183 11.16 11.509 16.756 15.123.431.278.822.554.87.613.121.151 4.129 2.704 5.913 3.768 5.887 3.51 14.786 7.886 21.652 10.648 1.244.501 2.496 1.01 2.783 1.133 3.76 1.61 15.163 5.479 21.782 7.392 1.076.311 1.957.618 1.957.682 0 .064-.437 1.952-.971 4.195-11.447 48.107-6.262 83.501 14.328 97.801 3.376 2.344 7.655 4.293 11.962 5.447l2.42.649 8.174.003c9.047.005 8.657.041 14.087-1.324 17.264-4.34 39.256-18.048 59.109-36.844.658-.623 1.29-1.21 1.405-1.306.115-.096.882-.832 1.704-1.636l1.496-1.462 2.839 2.695c3.991 3.79 7.656 7.064 11.371 10.163a994.04 994.04 0 0 1 1.993 1.666c5.295 4.436 15.968 12.11 20.291 14.59.401.23 1.849 1.081 3.217 1.89 9.485 5.612 20.824 10.002 29.444 11.399 3.151.511 16.32.297 18.609-.302 25.402-6.648 36.941-34.28 31.831-76.221-1.123-9.219-2.73-18.237-4.803-26.956-.477-2.009-.91-3.851-.962-4.094-.094-.438-.057-.454 3.354-1.465 14.724-4.361 30.296-10.617 40.145-16.128l2.261-1.264c2.534-1.415 5.13-3.04 9.289-5.813 13.719-9.146 23.564-22.028 25.921-33.914 5.158-26.012-16.357-49.679-60.253-66.28-5.731-2.168-14.697-5.138-19.696-6.525-.598-.166-1.087-.364-1.087-.441 0-.076.347-1.572.771-3.325 9.304-38.468 7.994-69.809-3.663-87.675-.613-.938-1.189-1.799-1.281-1.913-.093-.113-.653-.833-1.245-1.598-4.825-6.235-12.043-10.874-20.226-12.998L286 .11l-7.689-.065c-8.959-.076-9.29-.04-15.789 1.691-7.441 1.981-19.329 7.364-25.792 11.678-.411.274-.784.499-.828.499-.786 0-14.505 9.865-19.202 13.807-.81.68-1.623 1.354-1.806 1.497-2.495 1.957-9.328 8.071-13.111 11.732l-1.79 1.733-1.518-1.483c-1.359-1.327-3.581-3.433-4.11-3.895-.11-.095-.98-.884-1.934-1.751-1.466-1.333-6.251-5.474-7.323-6.337-.179-.144-.991-.818-1.804-1.498-17.168-14.35-36.263-24.479-51.429-27.281-3.169-.585-15.87-.652-18.5-.097m13.007 16.623c10.038 1.307 22.497 6.953 35.444 16.059 8.037 5.653 17.314 13.377 24.728 20.587l1.423 1.384-2.402 2.634c-2.214 2.427-6.13 6.904-8.01 9.159-.43.516-1.06 1.254-1.399 1.641a74.338 74.338 0 0 0-1.53 1.834 64.506 64.506 0 0 1-1.219 1.478c-1.385 1.57-8.742 10.998-11.672 14.957-1.274 1.721-2.61 3.521-2.967 4-1.215 1.624-3.516 4.868-3.592 5.065-.07.18-.625.27-3.099.506-14.535 1.383-31.894 4.065-45.706 7.061-1.799.391-3.307.673-3.352.628-1.128-1.127-5.42-25.734-6.076-34.826-.062-.86-.147-1.76-.189-2-.215-1.212-.275-12.004-.083-14.956.346-5.332 1.308-11.725 2.207-14.676.579-1.898 1.662-5.092 1.925-5.672 5.368-11.863 13.282-16.463 25.569-14.863m155.905.073c21.053 3.63 27.118 37.317 15.264 84.781-.624 2.501-.398 2.275-1.93 1.927-7.23-1.647-16.758-3.383-27.708-5.049-4.549-.692-16.388-2.126-20.174-2.443-2.863-.24-2.541-.041-4.522-2.804-1.912-2.665-5.657-7.742-5.815-7.883-.054-.048-.288-.361-.52-.695-1.192-1.719-8.727-11.269-11.732-14.87-4.339-5.199-10.251-11.97-12.307-14.095l-.849-.879 1.612-1.559c26.112-25.259 52.449-39.23 68.681-36.431m-80.866 51.877c2.364 2.601 6.26 7.04 7.824 8.913.32.383.75.891.957 1.131.207.239 1.166 1.393 2.132 2.564.965 1.171 1.869 2.267 2.009 2.435 1.57 1.888 7.705 9.76 7.949 10.201.177.32.119.328-1.619.219-7.815-.487-27.817-.541-38.652-.104-2.38.097-4.36.143-4.399.104-.189-.19 8.085-10.587 13.585-17.072 3.688-4.347 8.581-9.826 8.778-9.826.073 0 .719.646 1.436 1.435m15.883 42.478c.574.042 3 .162 5.392.266 2.391.103 5.991.3 8 .437 2.008.137 3.897.25 4.196.251.526.003 6.326 8.242 8.51 12.09.109.191 1.057 1.717 2.108 3.391a477.1 477.1 0 0 1 22.615 40.294l2.873 5.772-1.944 3.967c-5.472 11.163-15.813 29.939-20.623 37.445a59.993 59.993 0 0 0-1.143 1.857c-.23.4-1.201 1.963-2.158 3.474-.956 1.51-1.778 2.827-1.826 2.925-.079.163-3.031 4.642-6.492 9.85l-1.342 2.019-1.691.112c-1.683.11-9.059.539-12.214.71-14.765.798-36.259.52-55.341-.715l-1.688-.109-2.858-4.294c-4.231-6.357-11.259-17.503-12.941-20.524-.24-.431-.494-.861-.564-.957-.182-.246-5.333-9.192-5.957-10.348a544 544 0 0 0-1.868-3.391c-2.364-4.26-5.502-10.259-8.482-16.213l-2.892-5.777 2.891-5.788c5.059-10.128 14.15-26.744 17.437-31.874.306-.478.83-1.339 1.163-1.913 1.861-3.203 7.193-11.61 11.168-17.609 2.789-4.21 2.933-4.391 3.464-4.393.306-.001 1.612-.077 2.903-.17 4.485-.321 12.461-.703 16.957-.811 2.486-.06 4.56-.147 4.608-.193.103-.1 26.211.106 27.739.219m-74.978 3.435c-.071.12-.558.883-1.081 1.696a191.89 191.89 0 0 0-1.857 2.956c-.497.813-1.438 2.339-2.089 3.392-4.544 7.341-11.85 20.189-15.933 28.018-1.453 2.786-1.481 2.807-2.031 1.479-4.407-10.631-11.509-30.091-11.509-31.535 0-.577 17.961-3.936 29.959-5.603 5.062-.703 4.701-.671 4.541-.403m122.022.739c8.632 1.223 16.243 2.557 24.128 4.228l3.868.819-2.091 6.237c-2.8 8.353-5.89 16.576-9.589 25.518-.56 1.356-.551 1.361-1.797-1.027-1.267-2.429-1.938-3.678-4.743-8.818-1.096-2.009-2.124-3.848-2.284-4.087a8.23 8.23 0 0 1-.499-.87 8.14 8.14 0 0 0-.375-.695 97.741 97.741 0 0 1-1.103-1.913c-1.5-2.647-5.127-8.805-6.299-10.696a1474.48 1474.48 0 0 1-2.522-4.087 259.33 259.33 0 0 0-2.34-3.739 115.48 115.48 0 0 1-1.03-1.613c-.101-.17.023-.199.533-.127l6.143.87m-171.211 15.87c1.184 3.559 2.342 6.961 2.573 7.561.23.6 1.143 3.047 2.027 5.439 2.901 7.844 6.108 15.682 10.101 24.693l2.124 4.793-1.841 4.126c-1.012 2.27-1.921 4.342-2.02 4.606a27.48 27.48 0 0 1-.55 1.292c-3.962 8.696-14.421 36.798-14.421 38.747 0 .357.075.37-2.967-.529-11.13-3.29-21.508-7.175-30.199-11.305-.937-.445-1.964-.922-2.282-1.059-2.257-.973-11.421-6.295-14.192-8.24-25.411-17.845-26.392-35.539-2.949-53.152 9.972-7.492 27.334-15.869 42.85-20.677 5.425-1.68 9.327-2.839 9.449-2.805.079.023 1.113 2.952 2.297 6.51m218.749-5.772c45.886 13.82 70.841 34.002 65.835 53.244-1.793 6.891-8.379 14.973-17.373 21.32-1.1.776-2.039 1.454-2.087 1.506-.158.171-5.36 3.484-5.472 3.484-.036 0-.757.4-1.601.888-6.193 3.58-14.376 7.338-23.797 10.929-5.34 2.036-18.107 6.069-18.357 5.799-.069-.076-.574-1.546-1.122-3.268-3.922-12.326-10.556-29.515-15.907-41.217-.175-.383-.647-1.439-1.049-2.348-.401-.909-.81-1.75-.908-1.87-.121-.148-.12-.286.002-.434.474-.576 5.813-12.917 8.595-19.87 3.397-8.489 5.613-14.564 8.503-23.304 2.035-6.156 1.858-5.652 1.994-5.652.06 0 1.295.357 2.744.793m-115.364 13.493c-1.312.136-2.308.307-5.013.859-2.278.465-7.331 2.56-9.422 3.907-.43.277-.962.601-1.182.72-5.37 2.9-11.66 11.036-14.017 18.13-3.186 9.594-1.864 21.666 3.195 29.163.289.428.526.812.526.854 0 .631 4.381 5.736 6.366 7.418 22.561 19.115 56.388 4.57 57.915-24.903 1.082-20.886-17.423-38.32-38.368-36.148M121.397 197c5.078 9.746 12.237 22.163 18.927 32.826 1.14 1.817 2.058 3.321 2.04 3.342-.018.02-.538-.035-1.155-.123-.617-.089-2.609-.367-4.426-.618-9.332-1.29-26.6-4.399-28.899-5.203-.229-.081-.147-.353 2.089-6.963 3.06-9.043 9.539-26 9.935-26 .034 0 .704 1.232 1.489 2.739m159.689-.565c3.646 8.74 11.088 29.231 11.088 30.528 0 .601-15.411 3.538-27.739 5.285l-6.238.885-.673.095.37-.571c.404-.623 3.953-6.316 5.668-9.092.591-.956 2.305-3.852 3.809-6.435a939.755 939.755 0 0 1 2.897-4.956c.089-.144.307-.535.484-.87.177-.334.947-1.704 1.711-3.043a341.338 341.338 0 0 0 4.404-8l1.307-2.435c.31-.574.854-1.621 1.208-2.326.749-1.492.675-1.532 1.704.935m-174.999 48.008c14.024 3.015 29.449 5.427 44.435 6.95 4.059.413 4.371.469 4.695.847.192.223 1.243 1.649 2.337 3.169 9.234 12.834 21.104 27.483 29.449 36.345l1.004 1.065-2.15 2.069c-1.888 1.817-2.813 2.671-5.936 5.486-6.986 6.296-18.08 14.813-23.638 18.148-.318.191-1.628.981-2.909 1.756-30.322 18.322-50.061 13.367-55.379-13.903-2.942-15.083-1.129-39.142 4.594-60.984.088-.334.208-.824.267-1.087.131-.584-.196-.598 3.231.139m190.956-.537c0 .044.2.87.444 1.835 4.06 16.062 6.208 32.633 5.94 45.824-.759 37.284-18.394 48.62-50.297 32.332-5.215-2.663-15.666-9.205-18.087-11.323-.095-.084-.995-.772-2-1.528-6.131-4.618-14.16-11.514-19.521-16.765l-1.521-1.49.929-.961c4.982-5.158 15.862-18.207 22.696-27.221a657.038 657.038 0 0 1 2.797-3.675c.088-.108 1.458-1.987 3.044-4.174 1.586-2.188 3.059-4.192 3.274-4.454.385-.472.436-.481 4.824-.924 7.254-.732 14.418-1.655 22.87-2.946 6.029-.92 19.648-3.481 23.043-4.332 1.03-.258 1.565-.326 1.565-.198m-107.826 9.853c8.314.201 20.854.111 28.762-.206 2.38-.096 4.358-.144 4.394-.107.142.141-6.374 8.44-10.881 13.858-4.124 4.959-11.244 13.044-11.486 13.044-.463 0-13.195-14.833-17.165-19.998-.111-.145-.894-1.142-1.739-2.217-1.8-2.288-3.213-4.154-3.43-4.53-.136-.235.059-.253 1.652-.153.994.062 5.446.201 9.893.309" fill="#64dcfc" fill-rule="evenodd"/></svg>