<svg width="41" height="40" fill="none" xmlns="http://www.w3.org/2000/svg"><path fill-rule="evenodd" clip-rule="evenodd" d="M20.309 39c10.96 0 19.845-8.507 19.845-19S31.269 1 20.309 1C9.349 1 .464 9.507.464 20s8.885 19 19.845 19Z" fill="#B0C6A1"/><mask id="a" style="mask-type:alpha" maskUnits="userSpaceOnUse" x="0" y="1" width="41" height="38"><path fill-rule="evenodd" clip-rule="evenodd" d="M20.309 39c10.96 0 19.845-8.507 19.845-19S31.269 1 20.309 1C9.349 1 .464 9.507.464 20s8.885 19 19.845 19Z" fill="#fff"/></mask><g mask="url(#a)" fill-rule="evenodd" clip-rule="evenodd"><path d="M14.178 11.01c-1.073 1.946-3.54 2.663-5.697 3.42-2.158.758-4.53 2.12-4.695 4.314-.104 1.38.736 2.714.593 4.09-.295 2.843-4.171 3.8-5.969 6.08-1.293 1.64-1.383 3.985-.492 5.856.89 1.87 2.648 3.281 4.617 4.101 4.065 1.69 9.003.92 12.614-1.539 3.612-2.458 5.936-6.426 6.782-10.59.847-4.165.305-8.51-1.01-12.563-.487-1.505-1.176-3.09-2.594-3.89-1.419-.8-3.704-.246-3.962 1.31l-.188-.589" fill="#0A0F21"/><path d="M13.242 14.925C13.242 9.443 17.496 5 22.744 5c5.247 0 9.5 4.443 9.5 9.925 0 5.482-4.253 9.925-9.5 9.925-5.248 0-9.502-4.443-9.502-9.925" fill="#0A0F21"/><path d="M15.87 13.119s-2.046-1.549-2.02-1.893l-.608.234 1.866 2.221.761-.562" fill="#FF05DB"/><path d="M11.015 40.886s7.313 3.611 11.323 3.523c4.123-.09 13.077-4.06 13.077-4.06s-1.754-8.713-11.275-6.786c0 0-8.89-2.124-13.125 7.322Z" fill="#57C6FF"/><path d="m27.967 23.936-8.289 1.346-.076 9.695s.475 2.511 4.761 2.582c4.046.066 4.315-2.697 4.315-2.697l-.71-10.927-12.497 8.793" fill="#FBDED4"/><path d="m19.635 30.791.043-5.509-.043 5.51" fill="#0A0F21"/><path d="M20.06 30.804a5.76 5.76 0 0 1-.426-.012l.044-5.51 8.29-1.346.205 3.172c-2.706 3.405-6.796 3.696-8.113 3.696" fill="#F6D3C8"/><path d="M33.703 19.501c0 .771-.98 1.863-2.104 1.549-.773-.216-1.763-.778-1.763-1.549 0-.771 1.128-1.546 1.934-1.546 1.3 0 1.933.775 1.933 1.546" fill="#FBDED4"/><path d="M32.245 20.073c.001-.169.03-.334.088-.494.061-.158.126-.32.31-.452a.333.333 0 0 1 .183-.055c.035.003.074.006.104.017a.691.691 0 0 1 .082.045c.05.034.074.076.11.113.046.065.045.12.048.167.001.185-.057.34-.132.493-.02-.164-.03-.333-.06-.47-.01-.033-.024-.062-.03-.063l-.07-.054c-.044-.027-.053-.017-.1.007-.094.057-.186.201-.27.33-.081.135-.17.274-.263.416" fill="#EEA08E"/><path d="M14.46 19.501c0 .771.98 1.863 2.103 1.549.774-.216 1.764-.778 1.764-1.549 0-.771-1.129-1.546-1.934-1.546-1.3 0-1.934.775-1.934 1.546" fill="#FBDED4"/><path d="M15.918 20.073c-.093-.142-.181-.28-.263-.416-.084-.129-.176-.273-.27-.33-.046-.024-.055-.034-.1-.007l-.07.054c-.006.001-.02.03-.029.062-.03.138-.04.307-.06.471a1.08 1.08 0 0 1-.133-.493c.003-.047.002-.102.049-.167.035-.037.06-.079.11-.113a.685.685 0 0 1 .082-.045c.03-.011.069-.014.104-.017.066 0 .14.024.183.055.184.133.248.294.31.452.057.16.086.325.087.494" fill="#EEA08E"/><path d="M31.764 17.492c.144 5.385-2.518 10.532-7.142 10.645-4.624.114-7.964-4.483-8.107-9.868-.144-5.385 2.962-9.518 7.586-9.632 4.624-.113 7.52 3.47 7.663 8.855" fill="#FBDED4"/><path d="M21.492 17.766c-.008.298-.201.535-.432.53-.23-.005-.412-.252-.404-.55.008-.298.2-.535.431-.53.231.006.412.252.405.55M27.508 17.766c-.008.298-.201.535-.432.53-.23-.005-.412-.252-.404-.55.007-.298.2-.535.431-.53.231.006.412.252.405.55" fill="#172133"/><path d="M22.338 20.586c.293.32.593.615.92.844.328.225.684.377 1.044.365.36.003.723-.153 1.07-.36.345-.213.669-.485 1.017-.754a3.117 3.117 0 0 1-.772 1.055c-.17.152-.366.281-.585.385a1.95 1.95 0 0 1-.726.164 1.782 1.782 0 0 1-.732-.16 2.063 2.063 0 0 1-.579-.409 2.471 2.471 0 0 1-.657-1.13" fill="#292929"/><path d="M23.824 19.573a1.96 1.96 0 0 1 .407-.422c.148-.122.309-.226.477-.318l-.01.434a1.289 1.289 0 0 1-.334-.36 1.746 1.746 0 0 1-.184-.4 1.928 1.928 0 0 1-.09-.833c.16.235.3.461.448.67.079.1.146.204.23.287.08.084.16.158.24.208l.334.206-.343.228a3.13 3.13 0 0 1-.503.277 2.073 2.073 0 0 1-.573.172.1.1 0 0 1-.115-.082l.016-.067" fill="#D1746F"/><path d="M28.173 7.502c-1.672-1.302-4.724-.75-4.724-.75-2.782.322-5.316 1.863-6.583 4.256-1.95 3.682-.29 7.559-.29 7.559 4.465-1.548 7.267-6.285 8.45-8.72.527 2.446 2.136 5.763 6.744 8.107 0 0 1.309-6.633-3.597-10.452" fill="#0A0F21"/></g></svg>