<svg xmlns="http://www.w3.org/2000/svg" fill="none" height="203" width="354"><path style="filter:url(#a)" fill="#67A684" d="M49 163c53.21 7.955 30.889-17.554 64-19 33.545-1.446 19.407-45.668 78.706-20.28 35.327 9.764 15.14-52.728 76.188-34.299C285.083 94.611 297.432 113.286 317 118c10.187 2.454 30.983-13.125 37-6 23.475 27.8 14 94.819 14 94.819L0 206s17.48-47.7 49-43Z" opacity=".287"/><path style="filter:url(#b)" fill="#5E9778" d="M326.226 109.504s0-.039 0 0a.54.54 0 0 0-.12-.156c-2.548-3.272-1.752-8.064-1.513-9.115 0-.078.04-.117.04-.195v-.04c.08-.467.12-.934.12-1.402 0-4.168-3.464-7.596-7.764-7.596-4.26 0-7.764 3.39-7.764 7.596 0 .468.04.935.159 1.403v.039c0 .078.04.117.04.195.239 1.09.995 5.882-1.513 9.115-.04.039-.04.078-.08.117v.039a10.71 10.71 0 0 0-1.831 5.999c0 5.961 4.937 10.791 11.029 10.791 6.091 0 11.028-4.83 11.028-10.791.04-2.22-.637-4.285-1.831-5.999Z"/><path style="filter:url(#c)" stroke-width=".755" stroke="#fff" d="M317.029 101.29v38"/><path style="filter:url(#d)" stroke-width=".755" stroke="#fff" d="m310.844 109.359 6.176 8.824"/><path style="filter:url(#e)" stroke-width=".755" stroke="#fff" d="m321.487 102.898-4.412 5.294"/><path style="filter:url(#f)" fill="#5E9778" d="M275.226 116.504s0-.039 0 0a.54.54 0 0 0-.12-.156c-2.548-3.272-1.752-8.064-1.513-9.115 0-.078.04-.117.04-.195v-.039c.08-.468.12-.935.12-1.403 0-4.168-3.464-7.596-7.764-7.596-4.26 0-7.764 3.389-7.764 7.596 0 .468.04.935.159 1.403v.039c0 .078.04.117.04.195.239 1.09.995 5.882-1.513 9.115-.04.039-.04.078-.08.117v.039a10.71 10.71 0 0 0-1.831 5.999c0 5.961 4.937 10.791 11.029 10.791 6.091 0 11.028-4.83 11.028-10.791.04-2.22-.637-4.285-1.831-5.999Z"/><path style="filter:url(#g)" stroke-width=".755" stroke="#fff" d="m266.029 108.29-.009 50.21"/><path style="filter:url(#h)" stroke-width=".755" stroke="#fff" d="m259.844 116.359 6.176 8.824"/><path style="filter:url(#i)" stroke-width=".755" stroke="#fff" d="m270.487 109.898-4.412 5.294"/><path style="filter:url(#j)" fill="#71B791" d="M195 208c46.903 7.955 30.813-45.554 60-47 22.989-1.124 25.842-31.832 50-27 15 3 15 14 27 1 12-33 25-17 25-17l-3 92s-186.785-6.7-159-2Z" opacity=".287"/><path style="filter:url(#k)" fill="url(#l)" d="M47.382 18.79c-5.962 1.506-11.073-2.521-11.073-2.521s-5.965-7.235 3.482-9.696c2.512-.654 3.136-1.867 3.723-3.007.51-.99.99-1.924 2.655-2.392 2.881-.809 4.283.399 5.41 1.37 1.212 1.044 2.105 1.813 4.181-.506 5.1-5.698 11.528 4.535 11.528 4.535S78.524.73 81.475 9.628c2.95 8.897-7.263 10.58-12.47 9.162-1.215-.331-2.457.501-3.964 1.51C63.221 21.52 61.014 23 58 23c-2.991 0-5.013-1.457-6.699-2.671-1.418-1.022-2.599-1.873-3.92-1.54ZM274.63 34.593c-9.191 2.292-17.071-3.836-17.071-3.836s-9.196-11.01 5.368-14.754c3.874-.996 4.836-2.842 5.741-4.576.785-1.506 1.527-2.929 4.093-3.64 4.441-1.231 6.602.606 8.339 2.083 1.869 1.59 3.246 2.76 6.447-.769 7.862-8.67 17.772 6.902 17.772 6.902s17.322-8.892 21.871 4.648c4.55 13.54-11.196 16.1-19.223 13.942-1.874-.504-3.789.763-6.112 2.3C299.049 38.749 295.646 41 291 41c-4.611 0-7.728-2.217-10.327-4.065-2.187-1.555-4.007-2.85-6.043-2.342Z" clip-rule="evenodd" fill-rule="evenodd" opacity=".655"/><g style="filter:url(#m)" clip-path="url(#n)"><path fill="#96D0A7" d="M71.917 202.298s4.141-7.735 16.563-8.194c12.421-.459 18.041 2.577 31.283 1.443 14.984-1.284 17.525-9.097 41.54-10.048 24.016-.95 17.459 5.663 52.141 7.117 22.087.925 30.346-3.819 48.942-4.474 32.386-1.142 38.878 14.156 38.878 14.156H71.917Z"/><path fill="#71B791" d="M107.039 202.39s2.572-39.864-5.465-38.096c-8.037 1.768 3.697 38.096 3.697 38.096h1.768ZM108.19 202.39s2.483-47.55 10.52-45.782c8.037 1.768-8.752 45.782-8.752 45.782h-1.768ZM104.124 203.072s-4.454-19.961-8.473-19.077c-4.018.884 7.588 19.077 7.588 19.077h.885ZM110.714 203.072s7.1-19.961 11.118-19.077c4.019.884-10.234 19.077-10.234 19.077h-.884ZM269.32 202.51s2.12-32.85-4.503-31.393c-6.623 1.458 3.046 31.393 3.046 31.393h1.457ZM270.269 202.51s2.046-39.184 8.669-37.726c6.623 1.457-7.212 37.726-7.212 37.726h-1.457ZM266.918 203.072s-3.67-16.449-6.982-15.72c-3.311.728 6.253 15.72 6.253 15.72h.729ZM272.349 203.072s5.85-16.449 9.161-15.72c3.312.728-8.433 15.72-8.433 15.72h-.728Z"/><path fill="#CABAB1" d="M59 203.43h257.1v-1.069H59"/><path fill="#FEFEFE" d="m292.265 74.981-53.996-.063s.263-2.392 6.265-4.299c6.002-1.907 10.301 3.003 17.086.02 6.786-2.983 10.388-7.27 19.124-4.867 8.736 2.402 11.521 9.209 11.521 9.209ZM131.917 112.835l-35.347-.041s.173-1.81 4.102-3.254c3.929-1.444 6.743 2.27 11.185.013 4.441-2.258 6.8-5.502 12.518-3.686 5.718 1.817 7.542 6.968 7.542 6.968Z"/><path fill="#D7A059" d="M152.188 69.008c-.292-2.541-3.583-8.302-.339-9.556 1.594-.617 4.964-.392 6.558-1.096 2.071-.916 3.571-3.966 5.64-4.873.674-.296 1.402-.534 2.127-.474.705.059 1.34.394 1.922.765 1.783 1.139 3.586 4.381 4.627 6.188"/><path fill="#E7B46C" d="M188.025 60.192c2.271 5.034-7.582 9.359-19.942 14.936-12.361 5.576-22.55 10.292-24.821 5.259-2.271-5.034 6.744-12.28 19.105-17.856 12.361-5.576 23.387-7.372 25.658-2.339Z"/><path fill="#38364C" d="M174.491 64.878s5.086 9.128 15.997 4.054c10.912-5.074 19.457 9.345 12.193 19.175l-14.79-4.028-10.028-6.698-3.372-12.503Z"/><path fill="#F6A290" d="m172.231 84.229 9.086 5.546 4.319-7.818-13.502-7.921.097 10.193Z"/><path fill="#38364C" d="M176.483 86.825c-.159-.097-1.64-5.278-1.64-5.278l-1.577 3.314 3.217 1.964Z"/><path fill="#F6A290" d="M156.259 70.953s-3.155 3.689.516 8.47c0 0 2.699 3.435 6.623 8.348 2.074 2.596 6.113 2.726 8.138.091 1.24-1.613 2.407-3.668 2.937-6.093L174.93 78c.303-9.694-11.673-14.749-18.204-7.579a19.27 19.27 0 0 0-.467.532Z"/><path fill="#F6A290" d="m161.197 83.887-.34 2.99a.485.485 0 0 0 .752.457l1.815-1.221-2.227-2.226Z"/><path fill="#38364C" d="M159.369 79.375s-1.385.825-1.017 1.453c0 0 .259.418 1.451-.327 1.193-.746 1.43-1.059 1.292-1.528-.138-.469-1.11-.039-1.726.402ZM162.107 82.303a.686.686 0 0 1 .111.963.683.683 0 0 1-.964.08.686.686 0 0 1-.111-.963.683.683 0 0 1 .964-.08Z"/><path fill="#FEFEFE" d="m162.991 87.243 1.314-1.457s.757 1.223-.615 2.321l-.699-.864Z"/><path fill="#38364C" d="M168.083 75.128s-9.52 3.52-13.276-.147c0 0-.069-10.032 10.427-12.921 2.447-.674 6.109-.093 8.047 1.545 3.137 2.65 3.249 6.594 4.582 13.776 0 0-2.209 1.874-6.019-.897-.844-.614-3.761-1.356-3.761-1.356Z"/><path fill="#38364C" d="m163.182 75.844 6.218 2.179-2.303-5.019-3.915 2.84Z"/><path fill="#F6A290" d="M173.275 74.41a3.213 3.213 0 1 1-5.458 3.396 3.215 3.215 0 0 1 5.458-3.396Z"/><path fill="#38364C" d="m169.896 77.27-.011-.019c-.06-.099-.314-.589-.311-1.094 0-.246.054-.49.206-.72.153-.229.409-.454.851-.638a.258.258 0 0 0-.197-.476c-.515.213-.867.503-1.083.83a1.796 1.796 0 0 0-.292 1.004c.005.76.39 1.364.4 1.385a.257.257 0 0 0 .437-.272Z"/><path fill="#E7B46C" d="M150.687 76.037s11.393-9.34 29.742-12.418c2.894-4.367 2.013-3.078 2.013-3.078s-21.588-3.307-31.24 11.549c-10.17 15.654-.295 6.468-.295 6.468"/><path fill="#EBA47C" d="m202.875 193.832 7.953-.034-1.951-12.994-7.953.033 1.951 12.995Z"/><path fill="#A05F54" d="m210.656 192.514-10.33.043-8.376 3.551a4.998 4.998 0 0 0-2.696 4.459l23.761-.099-1.39-7.074a.969.969 0 0 0-.969-.88Z"/><path fill="#A05F54" d="m199.506 192.938 1.717-2.347a1.812 1.812 0 0 1 1.786-.721c.992.184 2.185.877 2.01 3.184l-5.513-.116Z"/><path fill="#2D2B2D" d="m213.142 201.791-23.883.1-.005-1.324 23.882-.1.006 1.324Z"/><path fill="#2D2B2D" d="m213.144 202.352-10.643.045-.009-1.885 10.644-.045.008 1.885ZM194.292 202.431l-5.031.021-.007-1.885 5.03-.021.008 1.885ZM200.912 202.403l-5.031.022-.008-1.886 5.031-.021.008 1.885Z"/><path fill="#C27066" d="M219.509 131.166c-.553.371-9.833 27.568-9.833 27.568l2.546 26.66-13.655 1.176-4.138-22.144c-.798-4.466-.481-9.181.898-13.36l11.427-34.655 13.298-3.306-.543 18.061Z"/><path fill="#EBA47C" d="m229.631 193.832 7.953-.034-1.951-12.994-7.953.033 1.951 12.995Z"/><path fill="#A05F54" d="m237.412 192.514-10.33.043-8.376 3.551a5.001 5.001 0 0 0-2.697 4.459l23.762-.099-1.39-7.074a.969.969 0 0 0-.969-.88Z"/><path fill="#A05F54" d="m226.262 192.938 1.717-2.347a1.812 1.812 0 0 1 1.786-.721c.991.184 2.185.877 2.01 3.184l-5.513-.116Z"/><path fill="#2D2B2D" d="m239.898 201.791-23.883.1-.006-1.324 23.883-.1.006 1.324Z"/><path fill="#2D2B2D" d="m239.9 202.352-10.644.045-.008-1.885 10.644-.045.008 1.885ZM221.048 202.431l-5.031.021-.008-1.885 5.031-.021.008 1.885ZM227.668 202.403l-5.031.022-.008-1.886 5.031-.021.008 1.885Z"/><path fill="#C27066" d="M231.858 107.822s7.272 6.147 2.435 23.344l-2.66 25.606 7.538 27.663-14.663.971-6.416-21.254c-1.507-5.52-2.21-7.957-2.064-13.865l.512-35.936 15.318-6.529Z"/><path fill="#AD5955" d="M216.921 138.967v-10.049l-5.074-3.195-.407.646 4.718 2.971v9.627h.763Z"/><path fill="#757EBC" d="M181.042 90.786c-1.245-4.202 1.143-8.689 5.374-9.833 2.105-.57 5.359-1.631 10.218-.451 19.302 4.682 37.245 27.974 37.245 27.974s-10.297 8.921-29.146 10.056c0 0-7.016-12.526-18.94-18.157-2.056-.97-3.621-5.774-4.751-9.589Z"/><path fill="#757EBC" d="m180.718 88.707.556 28.556c-.399 4.239 1.377 8.771 5.635 8.783a7.237 7.237 0 0 0 7.241-6.73l1.598-26.058c.286-4.077-3.771-9.11-7.857-9.179-3.724-.063-6.824.919-7.173 4.628Z"/><path fill="#5A6BB0" d="m195.26 106.765.138-14.32-.763-.007-.139 14.319"/><path fill="#5A6BB0" d="m195.26 106.765.138-14.32-.763-.007-.139 14.319"/><path fill="#D7A059" d="m136.524 173.575 16.057-1.004 3.355 5.827-19.005-2.3-.407-2.523Z"/><path fill="#D7A059" d="m136.524 173.575-3.223-2.528-.61 7.362 4.24-2.311-.407-2.523Z"/><path fill="#C27066" d="M134.102 174.883c-.205 2.03-.94 3.619-1.643 3.548-.703-.071-1.106-1.774-.902-3.804.204-2.031.94-3.619 1.642-3.549.703.071 1.107 1.774.903 3.805ZM168.428 167.398l-1.421-.074c.001-.012.054-1.5-.725-5.839-.657-3.662-.09-6.872.365-9.451.67-3.796.865-5.517-1.526-6.535-1.117-.474-2.141-.479-3.128-.008-2.989 1.423-4.498 6.574-4.513 6.627l-1.368-.394c.069-.236 1.709-5.822 5.27-7.518 1.358-.646 2.803-.651 4.296-.016 3.533 1.504 2.994 4.557 2.37 8.092-.459 2.596-.978 5.539-.366 8.952.818 4.558.75 6.101.746 6.164Z"/><path fill="#E7B46C" d="m142.09 163.32 15.008 16.821s9.817-2.41 14.072-12.441l-14.573-17.012-14.507 12.632Z"/><path fill="#D7A059" d="m144.09 165.623 14.498-12.617-.668-.768-14.498 12.617"/><path fill="#F6A291" d="M167.852 151.324a5.299 5.299 0 1 0-6.136-8.641 5.299 5.299 0 0 0 6.136 8.641Z"/><path fill="#F6A291" d="M159.588 145.986s-1.917-1.47.22-3.248c2.137-1.779 5.881-2.895 9.297 1.198l-9.517 2.05Z"/><path fill="#757EBC" d="m162.818 140.211 21.181-25.583c2.49-3.032 5.506-2.374 8.263.418a6.611 6.611 0 0 1-.033 9.322l-21.194 21.255-8.217-5.412Z"/><path fill="#38364C" d="M173.487 77.406s2.393 1.005 5.006 6.102c3.312 6.463 15.252 7.98 18.141-3.006l-12.054-4.395-9.706-4.075 1.006 2.529-2.393 2.845Z"/></g><defs><filter id="a" style="color-interpolation-filters:sRGB"><feColorMatrix result="colormatrix" values="1 0 0 0 0 0 1 0 0 0 0 0 1 0 0 0 0 0 1 -0"/><feComposite result="composite" k2=".251" operator="arithmetic" in2="colormatrix"/></filter><filter id="b" style="color-interpolation-filters:sRGB"><feColorMatrix result="colormatrix" values="1 0 0 0 0 0 1 0 0 0 0 0 1 0 0 0 0 0 1 -0"/><feComposite result="composite" k2=".251" operator="arithmetic" in2="colormatrix"/></filter><filter id="c" style="color-interpolation-filters:sRGB"><feColorMatrix result="colormatrix" values="1 0 0 0 0 0 1 0 0 0 0 0 1 0 0 0 0 0 1 -0"/><feComposite result="composite" k2=".251" operator="arithmetic" in2="colormatrix"/></filter><filter id="d" style="color-interpolation-filters:sRGB"><feColorMatrix result="colormatrix" values="1 0 0 0 0 0 1 0 0 0 0 0 1 0 0 0 0 0 1 -0"/><feComposite result="composite" k2=".251" operator="arithmetic" in2="colormatrix"/></filter><filter id="e" style="color-interpolation-filters:sRGB"><feColorMatrix result="colormatrix" values="1 0 0 0 0 0 1 0 0 0 0 0 1 0 0 0 0 0 1 -0"/><feComposite result="composite" k2=".251" operator="arithmetic" in2="colormatrix"/></filter><filter id="f" style="color-interpolation-filters:sRGB"><feColorMatrix result="colormatrix" values="1 0 0 0 0 0 1 0 0 0 0 0 1 0 0 0 0 0 1 -0"/><feComposite result="composite" k2=".251" operator="arithmetic" in2="colormatrix"/></filter><filter id="g" style="color-interpolation-filters:sRGB"><feColorMatrix result="colormatrix" values="1 0 0 0 0 0 1 0 0 0 0 0 1 0 0 0 0 0 1 -0"/><feComposite result="composite" k2=".251" operator="arithmetic" in2="colormatrix"/></filter><filter id="h" style="color-interpolation-filters:sRGB"><feColorMatrix result="colormatrix" values="1 0 0 0 0 0 1 0 0 0 0 0 1 0 0 0 0 0 1 -0"/><feComposite result="composite" k2=".251" operator="arithmetic" in2="colormatrix"/></filter><filter id="i" style="color-interpolation-filters:sRGB"><feColorMatrix result="colormatrix" values="1 0 0 0 0 0 1 0 0 0 0 0 1 0 0 0 0 0 1 -0"/><feComposite result="composite" k2=".251" operator="arithmetic" in2="colormatrix"/></filter><filter id="j" style="color-interpolation-filters:sRGB"><feColorMatrix result="colormatrix" values="1 0 0 0 0 0 1 0 0 0 0 0 1 0 0 0 0 0 1 -0"/><feComposite result="composite" k2=".251" operator="arithmetic" in2="colormatrix"/></filter><filter id="k" style="color-interpolation-filters:sRGB"><feColorMatrix result="colormatrix" values="1 0 0 0 0 0 1 0 0 0 0 0 1 0 0 0 0 0 1 -0"/><feComposite result="composite" k2=".251" operator="arithmetic" in2="colormatrix"/></filter><filter id="m" style="color-interpolation-filters:sRGB"><feColorMatrix result="colormatrix" values="1 0 0 0 0 0 1 0 0 0 0 0 1 0 0 0 0 0 1 -0"/><feComposite result="composite" k2=".251" operator="arithmetic" in2="colormatrix"/></filter><linearGradient gradientUnits="userSpaceOnUse" y2=".312" x2="34.451" y1=".312" x1="328" id="l"><stop stop-color="#FFC36E"/><stop stop-color="#FED57F" offset="1"/></linearGradient><clipPath id="n"><path transform="translate(59 53)" fill="#fff" d="M0 0h257.101v150.43H0z"/></clipPath></defs></svg>